<svg width="167" height="55" viewBox="0 0 167 55" fill="none" xmlns="http://www.w3.org/2000/svg">
<g clip-path="url(#clip0_762_546)">
<rect x="0.530334" y="0.5" width="166.172" height="54.1247" rx="6.83402" fill="#00953F"/>
<g clip-path="url(#clip1_762_546)">
<path d="M1.47986 10.4521V54.9539H154.791L166.703 45.951V1.44922H13.3914L1.47986 10.4521Z" fill="#00953F"/>
<path d="M147.382 21.793C143.706 21.793 140.771 24.7275 140.771 28.3457C140.771 31.964 143.706 34.9555 147.382 34.9555C151.058 34.9555 153.908 31.964 153.908 28.3457C153.908 24.7275 150.973 21.793 147.382 21.793ZM147.382 34.3857C144.02 34.3857 141.312 31.6791 141.312 28.3172C141.312 24.9554 144.02 22.3058 147.382 22.3058C150.745 22.3058 153.395 24.9839 153.395 28.3172C153.395 31.6506 150.688 34.3857 147.382 34.3857Z" fill="#1D1D1B"/>
<path d="M147.382 15.668C140.401 15.668 134.701 21.366 134.701 28.3461C134.701 35.3262 140.372 40.9958 147.382 40.9958C154.392 40.9958 159.978 35.3262 159.978 28.3461C159.978 21.366 154.335 15.668 147.382 15.668ZM147.382 40.4545C140.714 40.4545 135.271 35.0128 135.271 28.3461C135.271 21.6794 140.714 16.2378 147.382 16.2378C154.05 16.2378 159.436 21.6794 159.436 28.3461C159.436 35.0128 154.05 40.4545 147.382 40.4545Z" fill="#1D1D1B"/>
<path d="M147.382 16.207C140.714 16.207 135.271 21.6487 135.271 28.3154C135.271 34.9821 140.714 40.4237 147.382 40.4237C154.05 40.4237 159.436 34.9821 159.436 28.3154C159.436 21.6487 154.05 16.207 147.382 16.207ZM147.382 34.9251C143.706 34.9251 140.771 31.9336 140.771 28.3154C140.771 24.6971 143.678 21.7626 147.382 21.7626C151.087 21.7626 153.908 24.6971 153.908 28.3154C153.908 31.9336 150.973 34.9251 147.382 34.9251Z" fill="white"/>
<path d="M102.985 15.3801C100.448 15.3801 97.7412 15.8929 95.49 16.7476C93.7232 15.7789 91.9849 15.3801 89.5057 15.3801C86.0861 15.3801 82.8945 15.9214 79.7314 16.9755L78.734 17.3174V40.5369H85.8866V22.1322C86.8555 21.8473 87.6534 21.7334 88.7648 21.7334C91.4435 21.7334 92.0989 22.4171 92.0989 25.2662V40.5084H99.3085V24.8388C99.3085 23.6707 99.28 22.8445 99.1375 22.1607C100.163 21.8473 100.933 21.7049 101.759 21.7049C104.324 21.7049 105.378 22.7305 105.378 25.2377V40.4799H112.502V24.7533C112.502 21.5339 111.961 19.6821 110.508 18.1151C108.883 16.3202 106.205 15.3516 102.956 15.3516M111.961 39.9386H105.891V25.2377C105.891 22.4456 104.609 21.1636 101.731 21.1636C100.648 21.1636 99.679 21.363 98.4536 21.7619C98.6531 22.5881 98.7386 23.4713 98.7386 24.8103V39.9386H92.6118V25.2377C92.6118 22.1037 91.7284 21.1636 88.7363 21.1636C87.4824 21.1636 86.5421 21.306 85.3167 21.7049V39.9671H79.2469V17.7163L79.8739 17.5168C83.2935 16.3487 86.3996 15.9499 89.4772 15.9499C91.9279 15.9499 93.6377 16.3772 95.4045 17.3744C97.5702 16.4912 100.277 15.9499 102.956 15.9499C106.091 15.9499 108.627 16.89 110.109 18.5425C111.477 20.024 111.932 21.7904 111.932 24.8103V39.9956L111.961 39.9386Z" fill="#1D1D1B"/>
<path d="M110.166 18.5164C108.684 16.864 106.148 15.9238 103.013 15.9238C100.363 15.9238 97.6273 16.4651 95.4615 17.3483C93.6947 16.3227 91.9849 15.9238 89.5342 15.9238C86.4566 15.9238 83.3505 16.3512 79.9309 17.4908L79.304 17.6902V39.9411H85.3738V21.6789C86.5991 21.28 87.568 21.1375 88.7933 21.1375C91.7855 21.1375 92.6689 22.0777 92.6689 25.2116V39.9126H98.7956V24.7843C98.7956 23.4168 98.7386 22.5336 98.5106 21.7358C99.736 21.337 100.705 21.1375 101.788 21.1375C104.666 21.1375 105.948 22.4196 105.948 25.2116V39.9126H112.018V24.7273C112.018 21.7358 111.534 19.9694 110.194 18.4595" fill="white"/>
<path d="M131.424 33.3294C129.885 34.298 128.831 34.6399 127.292 34.6399C123.531 34.6399 121.479 32.3892 121.479 28.2866C121.479 24.184 123.559 21.7623 127.349 21.7623C128.176 21.7623 128.831 21.8478 129.458 22.0472C129.458 22.0472 130.626 22.3606 131.624 23.1584L132.108 23.5287L135.214 18.2011L134.872 17.9162C133.362 16.6341 131.538 16.1213 131.082 16.0073C129.458 15.523 127.15 15.4375 127.036 15.4375C119.427 15.4375 114.326 20.7082 114.326 28.543C114.326 36.3778 119.199 40.9647 126.694 40.9647C126.694 40.9647 126.808 40.9647 126.922 40.9647C128.005 40.9647 132.165 40.7653 135.129 38.0303L135.499 37.6884L131.852 33.0445L131.453 33.3009L131.424 33.3294ZM126.665 40.4519C119.484 40.4519 114.839 35.808 114.839 28.5715C114.839 21.335 119.741 16.0073 127.007 16.0073C127.007 16.0073 129.315 16.0643 130.883 16.5486C131.453 16.6911 133.077 17.2039 134.502 18.3435L131.909 22.731C130.826 21.8763 129.572 21.5059 129.572 21.5059C128.888 21.3065 128.176 21.221 127.321 21.221C123.246 21.221 120.909 23.8136 120.909 28.2866C120.909 32.7596 123.217 35.1812 127.264 35.1812C128.916 35.1812 130.056 34.8393 131.681 33.7852L134.701 37.6599C131.481 40.6514 126.637 40.4519 126.637 40.4519" fill="#1D1D1B"/>
<path d="M131.709 33.7838C130.085 34.8094 128.945 35.1798 127.292 35.1798C123.246 35.1798 120.937 32.6726 120.937 28.2851C120.937 23.8977 123.274 21.2196 127.349 21.2196C128.204 21.2196 128.916 21.305 129.6 21.5045C129.6 21.5045 130.854 21.8748 131.937 22.7296L134.53 18.3421C133.134 17.174 131.481 16.6896 130.911 16.5472C129.344 16.0628 127.036 16.0059 127.036 16.0059C119.769 16.0059 114.868 21.0486 114.868 28.5701C114.868 36.0915 119.512 40.4505 126.694 40.4505C126.694 40.4505 131.51 40.6499 134.758 37.6584L131.737 33.7838H131.709Z" fill="white"/>
<path d="M52.7167 15.9239C50.2944 15.582 48.3567 15.582 48.2997 15.582C39.4088 15.582 35.0773 19.6561 35.0773 28.0608V40.511H42.3724V27.9753C42.3724 24.2431 44.4242 21.9069 47.7583 21.9069C49.1261 21.9069 50.209 22.1348 51.0924 22.3627L51.6053 22.4767L53.3436 16.0094L52.7451 15.8954L52.7167 15.9239ZM51.2063 21.8499C50.3799 21.6504 49.2116 21.3655 47.7298 21.3655C44.1107 21.3655 41.8025 23.8727 41.8025 27.9753V39.9412H35.5902V28.0323C35.5902 19.9125 39.6082 16.1233 48.2712 16.1233C48.2712 16.1233 50.2375 16.1233 52.6312 16.4652L51.2063 21.8499Z" fill="#1D1D1B"/>
<path d="M48.2712 16.1211C39.6083 16.1211 35.5903 19.9388 35.5903 28.03V39.9389H41.8025V27.973C41.8025 23.8704 44.1107 21.3633 47.7298 21.3633C49.2116 21.3633 50.38 21.6482 51.2064 21.8476L52.6312 16.463C50.2375 16.1211 48.2712 16.1211 48.2712 16.1211Z" fill="white"/>
<path d="M64.3718 21.25C60.7527 21.25 58.4445 23.8996 58.4445 27.9167C58.4445 32.7601 60.7527 34.8683 65.9391 34.8683H69.7006V28.0592C69.7006 23.5007 67.9338 21.25 64.4002 21.25M69.1592 34.327H65.9391C61.0662 34.327 58.9859 32.4182 58.9859 27.9167C58.9859 24.1845 61.0947 21.7628 64.3718 21.7628C67.6489 21.7628 69.1307 23.7571 69.1307 28.0307V34.2985L69.1592 34.327Z" fill="#1D1D1B"/>
<path d="M64.8561 15.5254C55.7372 15.5254 51.6337 21.8502 51.6337 28.1181C51.6337 32.6195 53.1441 36.1523 55.9082 38.0327C59.1568 40.1694 61.9495 40.5113 67.4493 40.5113H76.3117V27.3773C76.3117 19.7419 72.2367 15.5254 64.8846 15.5254M75.7703 39.97H67.4493C61.75 39.97 59.2138 39.5711 56.2217 37.6053C53.6285 35.8389 52.2037 32.5056 52.2037 28.1466C52.2037 22.1636 56.1647 16.0952 64.8846 16.0952C71.9518 16.0952 75.7703 20.0268 75.7703 27.4058V39.9985V39.97Z" fill="#1D1D1B"/>
<path d="M64.8562 16.0676C56.1363 16.0676 52.1753 22.136 52.1753 28.1189C52.1753 32.4779 53.6001 35.8113 56.1933 37.5777C59.1854 39.5435 61.7216 39.9424 67.4209 39.9424H75.7419V27.3497C75.7419 19.9992 71.9234 16.0391 64.8562 16.0391M58.4445 27.891C58.4445 23.8739 60.7527 21.2243 64.3718 21.2243C67.9908 21.2243 69.6721 23.475 69.6721 28.0334V34.8426H65.9106C60.7242 34.8426 58.416 32.7343 58.416 27.891" fill="white"/>
<path d="M20.715 21.25C17.1245 21.25 14.7877 23.8996 14.7877 27.9167C14.7877 32.7601 17.1245 34.8683 22.2823 34.8683H25.9584V28.0592C25.9584 23.4153 24.3341 21.25 20.6865 21.25M25.4169 34.327H22.2538C17.3809 34.327 15.3007 32.4182 15.3007 27.9167C15.3007 24.1845 17.4094 21.7628 20.658 21.7628C23.9066 21.7628 25.3885 23.7002 25.3885 28.0307V34.2985L25.4169 34.327Z" fill="#1D1D1B"/>
<path d="M32.7976 27.3773C32.7976 19.7419 28.7511 15.5254 21.4275 15.5254C12.3086 15.5254 8.20507 21.8502 8.20507 28.1181C8.20507 32.6195 9.71539 36.1523 12.4511 38.0327C15.6712 40.1694 18.4923 40.5113 23.9922 40.5113H32.7691V27.3773H32.7976ZM24.0206 39.97C18.2928 39.97 15.7851 39.5711 12.793 37.6053C10.1998 35.8389 8.775 32.5056 8.775 28.1466C8.775 22.1636 12.736 16.0952 21.456 16.0952C28.5231 16.0952 32.2846 20.0268 32.2846 27.4058V39.9985H24.0491L24.0206 39.97Z" fill="#1D1D1B"/>
<path d="M32.2277 27.3751C32.2277 20.0246 28.4661 16.0645 21.399 16.0645C12.6791 16.0645 8.71803 22.1329 8.71803 28.1158C8.71803 32.4748 10.1429 35.8082 12.736 37.5746C15.7282 39.5404 18.2359 39.9393 23.9637 39.9393H32.1992V27.3466L32.2277 27.3751ZM14.7593 27.9164C14.7593 23.8993 17.096 21.2497 20.6866 21.2497C24.2771 21.2497 25.9584 23.4149 25.9584 28.0588V34.868H22.2824C17.096 34.868 14.7878 32.7597 14.7878 27.9164" fill="white"/>
</g>
</g>
<defs>
<clipPath id="clip0_762_546">
<rect x="0.530334" y="0.5" width="166.172" height="54.1247" rx="6.83402" fill="white"/>
</clipPath>
<clipPath id="clip1_762_546">
<rect width="165.223" height="53.4762" fill="white" transform="translate(1.47989 1.44922)"/>
</clipPath>
</defs>
</svg>
