<svg width="170" height="55" viewBox="0 0 170 55" fill="none" xmlns="http://www.w3.org/2000/svg">
<rect x="0.386475" y="0.351562" width="169.021" height="54.1247" rx="5.99794" fill="white"/>
<g clip-path="url(#clip0_807_878)">
<path d="M69.5914 17.7855C69.5914 16.6166 70.5517 15.6758 71.7447 15.6758C72.9377 15.6758 73.8979 16.6166 73.8979 17.7855C73.8979 18.9544 72.9377 19.8952 71.7447 19.8952C70.5517 19.8952 69.5914 18.9544 69.5914 17.7855Z" fill="#00529B"/>
<path d="M103.665 31.8968C103.665 30.7279 104.625 29.7871 105.818 29.7871C107.011 29.7871 107.972 30.7279 107.972 31.8968C107.972 33.0657 107.011 34.0065 105.818 34.0065C104.625 34.0065 103.665 33.0657 103.665 31.8968Z" fill="#00529B"/>
<path d="M34.15 20.8652C30.2217 20.8652 27.3701 23.6307 27.3701 27.4794C27.3701 31.3282 30.2217 34.0651 34.15 34.0651C38.0782 34.0651 40.9589 31.2997 40.9589 27.4794C40.9589 23.6592 38.1073 20.8652 34.15 20.8652M34.15 30.9861C32.2877 30.9861 31.0074 29.5321 31.0074 27.4794C31.0074 25.4268 32.2877 23.9728 34.15 23.9728C36.0122 23.9728 37.3217 25.4268 37.3217 27.4794C37.3217 29.5321 36.0413 30.9861 34.15 30.9861Z" fill="#00529B"/>
<path d="M65.4013 27.7936C65.2558 27.5085 65.0812 27.2804 64.8775 27.0809L64.7611 26.9668L64.8775 26.8528C65.0521 26.6532 65.2558 26.4537 65.4304 26.1971L68.8931 21.1509H64.6738L62.055 25.1137C61.9095 25.3133 61.6185 25.4273 61.153 25.4273H60.5419V17.9293C60.5419 16.4183 59.5817 16.2188 58.5632 16.2188H56.7883V33.8947H60.5419V28.5919H60.8911C61.3276 28.5919 61.6185 28.6489 61.7349 28.877L63.8009 32.6688C64.3829 33.6951 64.9648 33.8662 66.0414 33.8662H68.9222L66.798 30.4165L65.3722 27.7936H65.4013Z" fill="#00529B"/>
<path d="M83.5294 20.834C81.638 20.834 80.4159 21.6608 79.7466 22.3735L79.5138 22.6016L79.4265 22.288C79.2229 21.5467 78.5536 21.1191 77.5352 21.1191H75.8475V33.8628H79.572V27.9899C79.572 27.4197 79.6593 26.9065 79.8048 26.4789C80.2122 25.1104 81.3761 24.2551 82.8019 24.2551C83.9658 24.2551 84.4023 24.8538 84.4023 26.3933V31.9527C84.4023 33.2641 85.0134 33.8913 86.381 33.8913H88.1269V25.7661C88.1269 22.5446 86.5265 20.834 83.4712 20.834" fill="#00529B"/>
<path d="M71.8029 21.1211H70.057V30.9854V33.8649H73.7524V23.0597C73.7524 21.7483 73.1414 21.1211 71.8029 21.1211" fill="#00529B"/>
<path d="M48.7281 20.8652C44.7999 20.8652 41.9483 23.6307 41.9483 27.4794C41.9483 31.3282 44.7999 34.0651 48.7281 34.0651C52.6564 34.0651 55.5371 31.2997 55.5371 27.4794C55.5371 23.6592 52.6564 20.8652 48.7281 20.8652M48.7281 30.9861C46.8659 30.9861 45.5856 29.5321 45.5856 27.4794C45.5856 25.4268 46.8659 23.9728 48.7281 23.9728C50.5904 23.9728 51.8998 25.4268 51.8998 27.4794C51.8998 29.5321 50.6195 30.9861 48.7281 30.9861Z" fill="#00529B"/>
<path d="M128.224 20.8652C124.296 20.8652 121.444 23.6307 121.444 27.4794C121.444 31.3282 124.296 34.0651 128.224 34.0651C132.152 34.0651 135.033 31.2997 135.033 27.4794C135.033 23.6592 132.152 20.8652 128.224 20.8652M128.224 30.9861C126.362 30.9861 125.081 29.5321 125.081 27.4794C125.081 25.4268 126.391 23.9728 128.224 23.9728C130.057 23.9728 131.396 25.4268 131.396 27.4794C131.396 29.5321 130.115 30.9861 128.224 30.9861Z" fill="#00529B"/>
<path d="M100.464 21.0917C99.7661 21.0917 99.2132 21.3768 98.9513 21.8615L98.864 22.0611L98.6894 21.9185C98.0784 21.4053 97.0018 20.8066 95.285 20.8066C91.8223 20.8066 89.4654 23.344 89.4654 27.1643C89.4654 30.9845 91.8805 33.6074 95.3432 33.6074C96.5362 33.6074 97.4673 33.3508 98.1948 32.7806L98.4858 32.5526V32.9232C98.4858 34.6338 97.3509 35.5746 95.3141 35.5746C94.3247 35.5746 93.4227 35.3465 92.8116 35.1184C92.026 34.8904 91.5604 35.0899 91.2403 35.8597L90.9494 36.5724L90.542 37.6273L90.8039 37.7698C92.1133 38.454 93.801 38.8532 95.3432 38.8532C98.5149 38.8532 102.181 37.2566 102.181 32.8092V21.0917H100.464V21.0917ZM95.9833 30.4144C93.9465 30.4144 93.2481 28.6753 93.2481 27.0502C93.2481 26.3375 93.4227 23.9997 95.7796 23.9997C96.9727 23.9997 98.544 24.3418 98.544 27.1643C98.544 29.8442 97.1472 30.4144 95.9833 30.4144Z" fill="#00529B"/>
<path d="M24.1985 24.8275L23.6456 24.5139L24.1112 24.1147C24.664 23.6586 25.5952 22.6037 25.5952 20.7791C25.6243 18.0137 23.4128 16.2461 20.0083 16.2461H15.7018C14.6834 16.2746 13.8687 17.0729 13.8687 18.0707V33.808H20.0956C23.8784 33.808 26.3226 31.7838 26.3226 28.6763C26.3226 26.9942 25.537 25.5687 24.1985 24.8275ZM17.3313 21.2923V20.3515C17.3313 19.5247 17.6805 19.1541 18.4661 19.097H20.0083C21.3469 19.097 22.1325 19.8668 22.1325 21.1782C22.1325 22.1761 21.5796 23.3165 20.0665 23.3165H17.3604V21.2638L17.3313 21.2923ZM26.9046 31.3563H17.0112V27.8211C17.0112 27.0513 17.3022 26.6807 17.9715 26.5952H20.0083C21.4923 26.5952 22.4235 27.5075 22.4235 28.9615C22.4235 30.4155 21.4923 31.3563 20.0083 31.3563" fill="#00529B"/>
<path d="M151.619 20.8906C150.077 20.8906 148.593 21.6034 147.632 22.7723L147.371 23.1144L147.167 22.7437C146.468 21.5178 145.305 20.8906 143.646 20.8906C141.929 20.8906 140.765 21.8314 140.242 22.4016L139.892 22.7723L139.776 22.2876C139.572 21.5749 138.932 21.2042 137.972 21.2042H136.401V33.8625H139.921V28.2461C139.921 27.7614 139.98 27.2768 140.125 26.7636C140.474 25.4236 141.376 23.9411 142.948 24.1122C143.908 24.1977 144.373 24.939 144.373 26.3359V33.8625H147.953V28.2461C147.953 27.6474 148.011 27.1627 148.156 26.7066C148.447 25.4236 149.407 24.0837 150.92 24.0837C151.997 24.0837 152.404 24.6824 152.404 26.3074V31.9808C152.404 33.2638 152.986 33.834 154.296 33.834H155.954V25.7658C155.954 22.5157 154.5 20.8906 151.648 20.8906" fill="#00529B"/>
<path d="M119.378 29.472C119.378 29.472 117.836 31.0685 115.828 31.0685C113.995 31.0685 112.162 29.9852 112.162 27.5048C112.162 25.3951 113.588 23.9126 115.654 23.9126C116.323 23.9126 117.079 24.1407 117.196 24.5398V24.5969C117.487 25.4807 118.302 25.5377 118.476 25.5377H120.426V23.8841C120.426 21.6889 117.574 20.8906 115.683 20.8906C111.58 20.8906 108.612 23.6846 108.612 27.5333C108.612 31.3821 111.551 34.1761 115.595 34.1761C119.116 34.1761 121.037 31.9238 121.037 31.8953L121.153 31.7813L119.611 29.2724L119.407 29.5005L119.378 29.472Z" fill="#00529B"/>
</g>
<defs>
<clipPath id="clip0_807_878">
<rect width="142.057" height="23.1497" fill="white" transform="translate(13.8688 15.6758)"/>
</clipPath>
</defs>
</svg>
