<svg width="167" height="55" viewBox="0 0 167 55" fill="none" xmlns="http://www.w3.org/2000/svg">
<rect x="0.827545" y="0.5" width="166.172" height="54.1247" rx="5.81368" fill="#D20A11"/>
<path d="M38.5653 37.187C38.0089 37.187 33.8082 37.187 33.224 37.187C31.5549 37.187 31.694 35.7816 31.5271 34.5729V26.8147C31.5271 26.8147 32.6955 26.8147 33.9751 26.8147C35.4495 26.8147 37.3134 26.5898 39.1216 27.6299C39.1216 27.6299 37.842 24.5097 33.9751 24.5097H31.5271V22.008C31.5271 22.008 31.527 19.8436 30.9985 19.197C30.9985 19.197 34.2811 19.197 34.5037 19.197C37.5638 19.197 39.9562 19.1408 42.4043 20.7712C42.4043 20.7712 41.9314 16.6953 36.0059 16.6953H24.4888C24.4888 16.6953 26.5474 18.4381 26.4362 21.9518L26.5474 36.0627C26.5474 39.6326 27.9106 39.6888 27.9106 39.6888H39.2607C41.8479 39.6888 42.7381 37.8617 42.7381 36.8216V35.4724C42.7381 35.4724 41.9592 37.187 38.5374 37.187" fill="white"/>
<path d="M68.8323 36.0086V26.1422C68.8323 22.3193 65.7165 21.3074 63.4075 21.3074C60.3753 21.3074 59.4572 23.8935 59.0678 24.7649C58.3723 22.3756 55.9799 21.2793 54.0325 21.2793C50.3604 21.2793 49.4424 24.8211 49.4424 24.8211C49.4424 24.8211 49.3589 21.3917 46.3823 21.3917H43.4891C43.4891 21.3917 45.1582 22.0945 45.1582 25.046V36.0086C45.1582 39.6628 46.6048 39.6909 46.6048 39.6909H51.4175C51.4175 39.6909 49.5815 38.3417 49.5815 35.9805V26.2547C49.6371 25.8049 50.3604 24.3713 52.4468 24.3713C53.5874 24.3713 54.8671 25.58 54.8393 26.9855V36.0086C54.8393 39.6909 56.258 39.6909 56.258 39.6909H61.0986C61.0986 39.6909 59.2347 38.3979 59.2347 35.9805V26.2547C59.4016 25.7206 60.0414 24.3994 61.8497 24.3994C63.2685 24.3994 64.4647 25.6081 64.4369 27.0136C64.4369 27.0136 64.4369 35.2496 64.4369 36.0086C64.4369 39.719 65.8556 39.6909 65.8556 39.6909C68.3872 39.6909 70.6961 39.6909 70.6961 39.6909C70.6961 39.6909 68.8601 38.3979 68.8601 36.0086" fill="white"/>
<path d="M77.206 35.9782C77.206 38.4237 79.0699 39.6605 79.0699 39.6605C79.0699 39.6605 76.7888 39.6605 74.2572 39.6605C74.2572 39.6605 72.8385 39.6605 72.8385 36.0063V24.9874C72.8385 22.0922 71.1693 21.3613 71.1693 21.3613H74.0347C75.064 21.3613 77.206 21.3613 77.206 25.4653V35.9782Z" fill="white"/>
<path d="M91.9777 22.7668C91.9777 22.7668 91.5047 21.4457 89.5296 21.4457C86.5251 21.4457 85.774 25.0437 85.774 25.0437C85.5236 22.2046 84.7725 21.3613 82.6861 21.3613H79.7651C79.7651 21.3613 81.4621 22.0641 81.4621 25.0155V36.0063C81.4621 39.6605 82.9087 39.6886 82.9087 39.6886H87.6657C87.6657 39.6886 85.8297 38.3394 85.8297 35.9782V27.0113C85.9409 26.1961 86.3582 25.5777 87.0259 25.128C88.6116 24.116 90.7814 24.369 92.0055 25.8588V22.7668" fill="white"/>
<path d="M114.261 23.4161C115.902 23.4161 117.098 24.1469 117.098 24.1469V21.3641H113.093V17.1758C113.093 17.1758 112.035 19.031 109.866 20.83C108.502 21.9544 105.637 23.3598 105.637 23.3598L108.697 23.4161V36.1496C108.697 39.6914 110.172 39.6914 110.172 39.6914C112.814 39.6914 114.929 39.6914 114.929 39.6914C114.929 39.6914 113.093 38.4265 113.093 36.1215V23.4161C114.344 23.4161 113.482 23.4161 114.261 23.4161" fill="white"/>
<path d="M128.838 28.9541C126.14 31.765 124.026 31.3434 122.384 33.4235C122.384 33.4235 122.635 36.2344 124.749 37.2463C125.472 37.5836 128.449 38.5394 130.368 35.1662V38.3707C130.368 38.3707 129.116 39.6918 125.194 39.6918C120.52 39.6918 117.266 35.9533 117.266 30.8936C117.266 25.8339 119.908 21.2802 124.832 21.2521C129.701 21.224 132.371 25.1874 128.81 28.926M125.862 27.7454C126.668 26.2556 127.28 22.4889 124.554 22.7138C121.438 22.9387 122.023 31.3996 122.023 31.3996C123.052 30.2471 124.61 30.0222 125.834 27.7454" fill="white"/>
<path d="M74.9805 19.8741C76.2045 19.8741 77.2338 18.9184 77.2338 17.6816C77.2338 16.4448 76.2323 15.4609 74.9805 15.4609C73.7286 15.4609 72.7828 16.4448 72.7828 17.6816C72.7828 18.9184 73.7286 19.8741 74.9805 19.8741Z" fill="white"/>
<path d="M139.381 34.687C139.409 35.9801 138.269 37.6947 135.848 37.6947C133.428 37.6947 132.399 35.1087 132.399 35.1087V38.3975C132.399 38.3975 134.151 39.6905 136.905 39.6905C140.216 39.6905 143.443 37.1888 143.359 33.6751C143.332 32.4383 142.914 31.3701 142.247 30.4706C141.134 28.9808 139.103 27.8846 137.517 26.957C135.348 25.692 135.626 22.9654 138.825 23.2184C141.217 23.4152 142.219 25.7483 142.219 25.7483V22.6843C142.219 22.6843 140.383 21.2227 137.601 21.2227C134.819 21.2227 132.148 23.1341 132.232 25.5796C132.287 27.744 133.178 29.1495 134.93 30.4425C135.626 30.9766 136.46 31.4826 137.406 32.0167C138.825 32.8037 139.326 33.7594 139.354 34.6589" fill="white"/>
<path d="M97.5696 37.5839C96.0674 37.5839 95.0381 36.7687 95.0381 35.026C95.0381 30.8939 98.738 30.0506 99.7395 28.8419V36.5439C99.7395 36.5439 99.0718 37.5839 97.5696 37.5839ZM100.157 25.3845C100.157 27.1835 98.6546 27.9705 97.6809 28.4203C94.8155 29.6852 91.1712 31.0625 91.1712 35.2789C91.1712 38.0899 93.1742 39.6921 96.0117 39.6921C98.1816 39.6921 99.2666 38.5677 99.823 37.4996C100.157 39.5797 101.186 39.664 101.186 39.664C103.69 39.664 105.971 39.664 105.971 39.664C105.971 39.664 104.107 38.371 104.107 35.9817V25.6937C104.107 23.22 101.409 21.3086 98.5433 21.3086C95.6779 21.3086 94.0366 22.6578 94.0366 22.6578V25.8342C94.0366 25.8342 95.0103 23.3044 97.514 23.3044C99.5726 23.3044 100.185 24.3163 100.185 25.3563" fill="white"/>
</svg>
