<svg width="169" height="55" viewBox="0 0 169 55" fill="none" xmlns="http://www.w3.org/2000/svg">
<g clip-path="url(#clip0_762_486)">
<path d="M161.465 0.349609H7.72047C4.12074 0.349609 1.20258 3.26852 1.20258 6.86918V47.9548C1.20258 51.5554 4.12074 54.4744 7.72047 54.4744H161.465C165.065 54.4744 167.983 51.5554 167.983 47.9548V6.86918C167.983 3.26852 165.065 0.349609 161.465 0.349609Z" fill="#E42313"/>
<path fill-rule="evenodd" clip-rule="evenodd" d="M48.1845 33.1104L61.3268 33.0527L61.3557 39.8003L58.5888 39.8292L58.5312 36.2247L56.9172 36.1958V44.7024H58.2142L58.2719 48.105H50.9225V44.7024L52.6517 44.7312L52.6806 36.2247L51.153 36.1958L51.0954 39.8292H48.1268L48.1845 33.1104Z" fill="white"/>
<path fill-rule="evenodd" clip-rule="evenodd" d="M62.4508 33.1959V36.2237L64.0071 36.2525L67.0622 41.5006L67.0333 44.7014L65.4482 44.6726V48.1328L72.9417 48.104L72.884 44.6726L71.3853 44.7014L71.2412 41.5871L74.5557 36.2237L76.0255 36.1948L75.9967 33.1094L70.8665 33.1382L70.7801 36.2525L71.443 36.2237L70.2037 38.6171L68.7915 36.2525H69.5119L69.6272 33.1382L62.4508 33.1959Z" fill="white"/>
<path fill-rule="evenodd" clip-rule="evenodd" d="M105.567 33.1089L92.3675 33.0801V36.1943H93.8375L93.9523 44.499L92.3093 44.5855V48.1035H105.596L105.567 43.0572L102.368 42.9996L102.426 44.6432H98.3911L98.3042 41.8462L102.426 41.8173L102.397 38.7895H98.3911L98.3042 36.1943L102.512 36.1655L102.57 37.838H105.683L105.567 33.1089Z" fill="white"/>
<path fill-rule="evenodd" clip-rule="evenodd" d="M116.922 34.0356C116.606 34.0356 114.387 32.1612 109.689 33.3724C109.689 33.3724 104.962 34.9294 107.095 39.2548C107.614 39.918 107.758 40.0623 108.42 40.5813C109.314 41.1003 110.841 41.7924 113.407 42.5421C113.407 42.5421 116.116 43.0323 115.625 44.3588C115.625 44.3588 115.511 45.6275 113.061 45.3968C113.061 45.3968 110.524 45.2815 109.689 43.0323H106.691V48.0786H109.689L109.775 47.0693C109.775 47.0693 112.398 48.2227 114.704 48.1363C114.704 48.1363 119.257 48.6553 120.439 44.3299C120.439 44.3299 121.39 40.6966 117.355 39.4855C117.355 39.4855 113.003 38.1879 112.196 37.6689C112.196 37.6689 111.216 37.294 111.764 36.1406C111.764 36.1406 112.513 34.9872 115.107 35.8522C115.107 35.8522 116.548 36.1694 117.067 37.9861H119.747L119.834 33.0263H116.922C116.922 33.0263 116.981 33.7472 116.865 34.0067" fill="white"/>
<path fill-rule="evenodd" clip-rule="evenodd" d="M76.9766 48.1036L77.1206 44.6722L78.6482 44.5857L78.8499 36.2522L77.2647 36.1945L77.3224 33.1379H88.0436C88.0436 33.1379 90.8393 32.7054 91.2427 36.5117C91.2427 36.5117 91.4444 40.0585 88.5052 41.0966L90.0613 44.6722L91.214 44.6145V48.1325H87.3812L84.2969 41.558H83.0293L83.1154 44.5857L84.6428 44.6433V48.1036H76.9477H76.9766ZM83.1441 36.1945V38.386H85.7095C85.7095 38.386 86.8622 37.9534 86.6605 36.9442C86.6605 36.9442 86.6605 36.1657 85.5365 36.1945C86.6605 36.1657 83.1441 36.1945 83.1441 36.1945Z" fill="white"/>
<path fill-rule="evenodd" clip-rule="evenodd" d="M104.875 6.86914V11.8577H108.824V22.3828H101.648L98.3328 19.2974C98.3328 19.2974 103.348 19.2397 103.348 12.9535C103.348 7.30168 97.5261 6.86914 97.5261 6.86914H60.4044L57.3494 15.2315L54.3808 6.86914H37.8087V11.8001H43.7458L39.5092 22.3539H35.2725V27.3137H49.9424V22.3828H46.945L49.5677 16.2119L53.7756 27.3137H59.8856L64.2664 16.1831L67.2926 22.4117H63.9494V27.2849H88.8511V22.4404H84.7297V19.528H88.5912L97.1801 27.2849H120.669V22.4117H116.49V19.528H124.964V14.4529H116.49V11.8289H127.356V15.5199H133.639V6.86914H104.818H104.875ZM78.1293 22.3539H74.9302L70.4341 11.8289H78.1293V22.3539ZM94.5861 14.4529H84.7297V11.8289H94.5861C94.5861 11.8289 95.6814 11.7424 95.6814 13.1842C95.6814 14.5106 94.5861 14.4529 94.5861 14.4529Z" fill="white"/>
</g>
<defs>
<clipPath id="clip0_762_486">
<rect width="168.072" height="54.1247" fill="white" transform="translate(0.584839 0.349609)"/>
</clipPath>
</defs>
</svg>
