<svg width="121" height="40" viewBox="0 0 121 40" fill="none" xmlns="http://www.w3.org/2000/svg">
<g clip-path="url(#clip0_807_954)">
<rect x="0.651669" y="0.0917969" width="119.644" height="38.9318" rx="4.92985" fill="white"/>
<path d="M31.6546 11.1406H31.3853C25.5266 11.2304 21.4636 14.3968 21.4636 18.8206C21.4636 23.2445 25.549 26.4108 31.3853 26.5006H31.6546C37.4908 26.4108 41.5762 23.2445 41.5762 18.8206C41.5762 14.3968 37.4908 11.2304 31.6546 11.1406ZM31.5199 24.008C27.255 23.9631 24.494 21.942 24.494 18.8431C24.494 15.7441 27.255 13.7006 31.5199 13.6557C35.7849 13.7006 38.5459 15.7217 38.5459 18.8431C38.5459 21.9645 35.7849 23.9631 31.5199 24.008Z" fill="black"/>
<path d="M96.3022 11.1406H96.0328C90.1966 11.2304 86.1112 14.3968 86.1112 18.8206C86.1112 23.2445 90.1966 26.4108 96.0328 26.5006H96.3022C102.138 26.4108 106.224 23.2445 106.224 18.8206C106.224 14.3968 102.138 11.2304 96.3022 11.1406ZM96.1675 24.008C91.9026 23.9631 89.1416 21.942 89.1416 18.8431C89.1416 15.7441 91.9026 13.7006 96.1675 13.6557C100.432 13.7006 103.193 15.7217 103.193 18.8431C103.193 21.9645 100.432 23.9631 96.1675 24.008Z" fill="black"/>
<path d="M74.798 11.1416H74.5511C71.7677 11.1865 69.3883 11.9276 67.6374 13.1627V11.8602H64.607V31.2848H67.6374V24.4581C69.3658 25.6932 71.7452 26.4342 74.5511 26.4792H74.798C80.6567 26.3893 84.7196 23.223 84.7196 18.7991C84.7196 14.3753 80.6342 11.209 74.798 11.1191M74.6633 23.9865C70.3984 23.9416 67.6374 21.9206 67.6374 18.8216C67.6374 15.7227 70.3984 13.6791 74.6633 13.6342C78.9283 13.6791 81.6893 15.7002 81.6893 18.8216C81.6893 21.943 78.9283 23.9416 74.6633 23.9865" fill="black"/>
<path d="M53.2264 11.1416H52.9794C50.196 11.1865 47.8166 11.9276 46.0657 13.1627V11.8602H43.0354V31.2848H46.0657V24.4581C47.7942 25.6932 50.1736 26.4342 52.957 26.4792H53.2264C59.0626 26.3893 63.148 23.223 63.148 18.7991C63.148 14.3753 59.0626 11.209 53.2264 11.1191M53.0917 23.9865C48.8267 23.9416 46.0657 21.9206 46.0657 18.8216C46.0657 15.7227 48.8267 13.6791 53.0917 13.6342C57.3566 13.6791 60.1176 15.7002 60.1176 18.8216C60.1176 21.943 57.3566 23.9416 53.0917 23.9865" fill="black"/>
</g>
<defs>
<clipPath id="clip0_807_954">
<rect x="0.651669" y="0.0917969" width="119.644" height="38.9318" rx="4.92985" fill="white"/>
</clipPath>
</defs>
</svg>
