<svg width="111" height="37" viewBox="0 0 111 37" fill="none" xmlns="http://www.w3.org/2000/svg">
<rect x="0.0449829" y="0.589844" width="110.253" height="35.5693" rx="4.62434" fill="#7C170F"/>
<path d="M32.9033 10.2346C32.7892 10.0346 32.618 9.92027 32.3898 9.92027C32.1616 9.92027 31.8478 10.0917 31.8478 10.3774C31.8478 10.6346 32.1045 10.7774 32.3042 10.8346L32.5324 10.9203C32.9889 11.0917 33.3312 11.3489 33.3312 11.8917C33.3312 12.4918 32.8748 12.8918 32.3042 12.8918C31.7622 12.8918 31.3628 12.5203 31.3057 11.9775L31.7051 11.8917C31.7051 12.2346 31.9904 12.5203 32.3327 12.5203C32.6751 12.5203 32.9318 12.2346 32.9318 11.8917C32.9318 11.5489 32.6465 11.406 32.3613 11.2917L32.133 11.206C31.7622 11.0631 31.4198 10.8346 31.4198 10.3774C31.4198 9.86312 31.8763 9.54883 32.3613 9.54883C32.7321 9.54883 33.0174 9.72026 33.1886 10.0346L32.8748 10.2346H32.9033Z" fill="#FFF5DC"/>
<path d="M37.2395 9.60352H38.9797V9.97495H37.6674V10.8893H38.9512V11.2607H37.6674V12.4893H38.9797V12.8322H37.2395V9.60352Z" fill="#FFF5DC"/>
<path d="M43.5442 12.0324L43.1733 12.8324H42.7454L44.2859 9.46094L45.8264 12.8324H45.3985L45.0277 12.0324H43.5442ZM44.2859 10.3467L43.7154 11.661H44.8565L44.2859 10.3467V10.3467Z" fill="#FFF5DC"/>
<path d="M52.445 11.206V11.3489C52.445 12.2346 51.8174 12.9203 50.9045 12.9203C49.9916 12.9203 49.2784 12.1489 49.2784 11.2346C49.2784 10.3203 50.0201 9.54883 50.9615 9.54883C51.475 9.54883 51.96 9.77741 52.2738 10.1774L51.9885 10.4346C51.7603 10.1203 51.3609 9.89169 50.9615 9.89169C50.2483 9.89169 49.6778 10.4917 49.6778 11.206C49.6778 11.8917 50.2483 12.5203 50.933 12.5203C51.418 12.5203 51.96 12.0917 51.9885 11.5489H51.1612V11.1774H52.445V11.206Z" fill="#FFF5DC"/>
<path d="M58.4644 12.8322H57.9795L57.038 11.4607H56.8669V12.8322H56.4675V9.60352H56.9524C57.2377 9.60352 57.5515 9.60352 57.8083 9.74638C58.0936 9.91781 58.2362 10.2035 58.2362 10.5178C58.2362 10.975 57.9224 11.375 57.4659 11.4321L58.493 12.8322H58.4644ZM56.8669 11.1178H57.0095C57.4089 11.1178 57.8653 11.0321 57.8653 10.5178C57.8653 10.0035 57.3804 9.94638 56.981 9.94638H56.8669V11.1178V11.1178Z" fill="#FFF5DC"/>
<path d="M62.8863 12.0324L62.5154 12.8324H62.0875L63.628 9.46094L65.1685 12.8324H64.7406L64.3697 12.0324H62.8863V12.0324ZM63.628 10.3467L63.0574 11.661H64.1985L63.628 10.3467Z" fill="#FFF5DC"/>
<path d="M69.6759 10.7181L69.2765 12.8324H68.8771L69.5332 9.46094L70.6458 12.0324L71.7584 9.46094L72.4146 12.8324H71.9866L71.6158 10.7181L70.6458 12.9182L69.6759 10.7181Z" fill="#FFF5DC"/>
<path d="M74.4971 8.46122L73.9266 9.6041L73.6698 9.51839L74.1548 8.31836L74.4971 8.46122Z" fill="#FFF5DC"/>
<path d="M77.949 10.2346C77.8349 10.0346 77.6637 9.92027 77.4355 9.92027C77.2073 9.92027 76.8935 10.0917 76.8935 10.3774C76.8935 10.6346 77.1502 10.7774 77.3499 10.8346L77.5781 10.9203C78.0346 11.0917 78.3769 11.3489 78.3769 11.8917C78.3769 12.4918 77.9205 12.8918 77.3499 12.8918C76.8364 12.8918 76.4085 12.5203 76.3514 11.9775L76.7508 11.8917C76.7508 12.2346 77.0361 12.5203 77.3785 12.5203C77.7208 12.5203 77.9775 12.2346 77.9775 11.8917C77.9775 11.5489 77.6923 11.406 77.407 11.2917L77.1788 11.206C76.8079 11.0631 76.4656 10.8346 76.4656 10.3774C76.4656 9.86312 76.922 9.54883 77.407 9.54883C77.7778 9.54883 78.0631 9.72026 78.2343 10.0346L77.9205 10.2346H77.949Z" fill="#FFF5DC"/>
<path d="M6.97127 18.1499C6.97127 17.5499 6.71452 17.407 6.48629 17.207H10.4802C13.7609 17.207 15.4726 18.0071 15.4726 20.55C15.4726 21.3786 14.7024 22.8072 13.1333 23.2643L15.33 27.093C15.7294 27.7787 15.9861 27.9216 16.2714 28.1787H13.3616L10.9652 23.75H9.19646V27.2358C9.19646 27.8359 9.45321 27.9787 9.68143 28.1787H6.45776C6.65746 27.9787 6.94274 27.8359 6.94274 27.2358V18.1499H6.97127ZM10.5943 22.1786C12.4772 22.1786 13.2474 21.6643 13.2474 20.5785C13.2474 19.3499 12.4772 18.7785 10.5658 18.7785H9.25351V22.15H10.6229L10.5943 22.1786Z" fill="#FFF5DC"/>
<path d="M17.2413 22.691C17.2413 19.5766 19.6377 16.9766 22.8614 16.9766C25.9139 16.9766 28.4243 19.4338 28.4243 22.691C28.4243 25.9482 25.9994 28.4054 22.8614 28.4054C19.7233 28.4054 17.2413 25.8625 17.2413 22.691ZM22.8614 26.8054C24.8868 26.8054 26.1706 24.8339 26.1706 22.691C26.1706 20.5481 24.8583 18.548 22.8614 18.548C20.8644 18.548 19.495 20.4338 19.495 22.691C19.495 24.9482 20.8644 26.8054 22.8614 26.8054Z" fill="#FFF5DC"/>
<path d="M32.675 24.5215L29.6225 18.3499C29.3372 17.7785 29.052 17.407 28.6811 17.207H32.0474C32.0474 17.207 31.7906 17.3785 31.7906 17.5499C31.7906 17.8356 31.9333 18.0642 32.0474 18.3213L34.1299 22.7786L36.184 18.4642C36.2981 18.2071 36.4693 17.9213 36.4693 17.6356C36.4693 17.3499 36.3266 17.3213 36.2696 17.2356H38.9227C38.5233 17.5213 38.3236 17.7499 38.0098 18.4356L34.9573 24.5215V27.2644C34.9573 27.8644 35.214 28.0073 35.4422 28.2073H32.2471C32.4468 28.0073 32.7321 27.8644 32.7321 27.2644V24.5786L32.675 24.5215Z" fill="#FFF5DC"/>
<path d="M41.4902 18.7492C41.6043 18.4349 41.8325 18.0349 41.8325 17.6635C41.8325 17.4635 41.6328 17.3492 41.4616 17.1777H44.2859L47.9375 26.778C48.3084 27.7208 48.5081 27.9494 48.8219 28.1494H45.5126C45.5126 28.1494 45.855 27.8923 45.855 27.6923C45.855 27.4065 45.7123 27.1208 45.5982 26.8351L44.8565 24.8922H40.834L40.1494 26.6922C40.0352 26.978 39.8641 27.4066 39.8641 27.6351C39.8641 27.8637 40.1493 28.0351 40.2349 28.1209H37.4677C37.753 27.8351 38.0383 27.5494 38.3806 26.6922L41.4902 18.7206V18.7492ZM44.343 23.4922L42.8025 19.4635L41.2905 23.4922H44.3144H44.343Z" fill="#FFF5DC"/>
<path d="M50.7618 18.1499C50.7618 17.5213 50.5051 17.407 50.2769 17.207H53.5005C53.2723 17.407 53.0155 17.5499 53.0155 18.1499V26.6073H56.2963C57.3803 26.6073 57.3803 26.4358 57.6656 26.1215V28.1787H50.2769C50.4766 27.9787 50.7618 27.8359 50.7618 27.2358V18.1499V18.1499Z" fill="#FFF5DC"/>
<path d="M64.5979 24.9489C65.1115 25.6918 66.2526 26.8347 68.0784 26.8347C69.2766 26.8347 70.0753 26.3489 70.0753 25.4061C70.0753 23.0917 64.3983 24.1775 64.3983 20.2917C64.3983 18.3487 66.0529 17.0059 68.3922 17.0059C69.9042 17.0059 70.7885 17.7202 71.2165 17.7202C71.4447 17.7202 71.5303 17.4344 71.6444 17.3487V20.4631C71.1309 19.6059 69.8186 18.5773 68.4207 18.5773C67.4222 18.5773 66.6234 19.1488 66.6234 20.1202C66.6234 22.2631 72.3005 21.2917 72.3005 25.0346C72.3005 27.0918 70.6459 28.4347 68.1925 28.4347C66.6234 28.4347 65.2826 27.6633 64.9973 27.6633C64.8262 27.6633 64.7121 27.9204 64.5694 28.0061V24.9775L64.5979 24.9489Z" fill="#FFF5DC"/>
<path d="M76.7223 18.7785H74.5542C73.7268 18.7785 73.7268 19.2071 73.4701 19.4642V17.207H82.2282V19.4642C81.9715 19.2071 81.9715 18.7785 81.1441 18.7785H78.976V27.2358C78.976 27.8359 79.2613 27.9787 79.461 28.1787H76.2373C76.437 27.9787 76.7223 27.8359 76.7223 27.2358V18.7785V18.7785Z" fill="#FFF5DC"/>
<path d="M85.4805 18.7492C85.5946 18.4349 85.8228 18.0349 85.8228 17.6635C85.8228 17.4635 85.6231 17.3492 85.4519 17.1777H88.2762L91.9278 26.778C92.2987 27.7208 92.4984 27.9494 92.8122 28.1494H89.5029C89.5029 28.1494 89.8452 27.8923 89.8452 27.6923C89.8452 27.4065 89.7026 27.1208 89.5885 26.8351L88.8468 24.8922H84.7958L84.1111 26.6922C83.997 26.978 83.8544 27.4066 83.8544 27.6351C83.8544 27.8637 84.1111 28.0351 84.2252 28.1209H81.458C81.7148 27.8351 82.0286 27.5494 82.3709 26.6922L85.4805 18.7206V18.7492ZM88.3333 23.4922L86.7927 19.4635L85.2808 23.4922H88.3047H88.3333Z" fill="#FFF5DC"/>
<path d="M102.711 27.2923C101.485 27.9495 100.543 28.3781 98.9171 28.3781C94.8947 28.3781 93.3256 25.6351 93.3256 22.5779C93.3256 19.1207 96.0073 16.9492 98.6889 16.9492C100.572 16.9492 101.371 17.7207 101.913 17.7207C102.169 17.7207 102.198 17.4349 102.312 17.3492V20.5493C101.741 19.835 100.857 18.5207 99.1453 18.5207C97.0628 18.5207 95.5793 20.2922 95.5793 22.8065C95.5793 24.7208 96.749 26.778 98.9742 26.778C99.6588 26.778 100.058 26.578 100.486 26.4352V24.2637C100.486 23.6637 100.201 23.4922 100.001 23.2922H103.225C103.025 23.4922 102.74 23.6351 102.74 24.2351V27.2638L102.711 27.2923Z" fill="#FFF5DC"/>
</svg>
