<svg width="120" height="39" viewBox="0 0 120 39" fill="none" xmlns="http://www.w3.org/2000/svg">
<g filter="url(#filter0_d_807_923)">
<rect x="0.846619" y="0.0410156" width="118.695" height="37.9823" rx="4.14281" fill="white"/>
<path fill-rule="evenodd" clip-rule="evenodd" d="M76.5516 10.4779V13.1855H71.9302V20.8918C71.9302 22.558 72.9018 23.3651 74.4772 23.3651C75.3175 23.3651 76.184 23.2349 77.0243 23.0006L77.4444 25.7603C76.6566 26.0727 75.2912 26.281 74.0309 26.281C70.7486 26.281 68.7005 24.4586 68.7005 21.3344V13.2115H65.9172V10.5039H68.753V5.53125H71.904V10.5039H76.5516V10.4779Z" fill="#412174"/>
<path fill-rule="evenodd" clip-rule="evenodd" d="M58.8013 16.5973C56.8319 16.2067 56.0967 15.7121 56.0967 14.7488C56.0967 13.6033 57.2783 12.9524 59.6153 12.9524C61.2695 12.9524 63.1338 13.3169 64.3942 13.8636L64.7356 11.0779C63.4227 10.5311 61.3746 10.1406 59.4577 10.1406C55.5191 10.1406 52.9195 12.0672 52.9195 14.6967C52.9195 17.0919 54.39 18.628 57.1208 19.2007L59.4577 19.6433C61.5058 20.0599 62.3461 20.6066 62.3461 21.648C62.3461 22.8456 61.2433 23.4184 58.9063 23.4184C57.042 23.4184 55.2302 23.0018 53.5235 22.3249L53.1296 25.0846C54.495 25.8136 56.7007 26.2562 59.0901 26.2562C62.8975 26.2562 65.4708 24.7462 65.4708 21.622C65.4708 18.9404 63.764 17.6126 60.5868 16.9617L58.7488 16.5973H58.8013Z" fill="#412174"/>
<path fill-rule="evenodd" clip-rule="evenodd" d="M85.3217 10.1406C80.5428 10.1406 76.998 13.6553 76.998 18.1854C76.998 22.7154 80.5428 26.2301 85.3217 26.2301C90.1007 26.2301 93.6455 22.6894 93.6455 18.1854C93.6455 13.6814 90.0744 10.1406 85.3217 10.1406ZM85.3217 23.2361C82.3546 23.2361 80.2277 21.0232 80.2277 18.1854C80.2277 15.3476 82.3546 13.1346 85.3217 13.1346C88.2889 13.1346 90.4158 15.3476 90.4158 18.1854C90.4158 21.0232 88.2889 23.2361 85.3217 23.2361Z" fill="#412174"/>
<path fill-rule="evenodd" clip-rule="evenodd" d="M96.3237 10.4785L100.394 15.9198L104.437 10.4785H108.166L102.389 18.0286L108.324 25.9172H104.595L100.394 20.1635L96.1661 25.9172H92.4638L98.3718 18.0286L92.5951 10.4785H96.3237Z" fill="#412174"/>
<path d="M44.412 10.1406C41.7337 10.1406 40.0007 11.1299 38.8191 12.5619V10.453H35.5631V32.3483H38.8191V23.8089C39.9744 25.2669 41.7337 26.2562 44.412 26.2562C48.8496 26.2562 52.2631 23.0279 52.2631 18.2895C52.2631 13.5512 48.8496 10.1667 44.412 10.1667M44.0181 23.3924C40.9985 23.3924 38.8453 21.1273 38.8453 18.2895C38.8453 15.4517 40.9985 13.0305 44.0181 13.0305C47.0378 13.0305 49.0334 15.4517 49.0334 18.2895C49.0334 21.1273 47.0378 23.3924 44.0181 23.3924Z" fill="#412174"/>
<path fill-rule="evenodd" clip-rule="evenodd" d="M18.9944 18.7576C19.467 18.4191 19.9134 18.0546 20.3335 17.6381C21.1212 16.8831 21.7514 15.9979 22.2241 15.0606V19.1741C22.2241 21.7516 23.642 23.2095 26.0577 23.2095C28.4734 23.2095 30.4428 21.7516 30.4428 19.1741V10.4785H33.725V25.9172H30.4428V23.9646C29.9439 24.7456 28.4472 26.2296 25.5588 26.2296C21.2788 26.2296 18.9944 23.6001 18.9944 19.825V18.7576V18.7576Z" fill="#412174"/>
<path d="M11.931 17.4292V20.5273C14.6356 20.5273 17.2613 19.4599 19.2044 17.5854C20.1497 16.6742 20.9112 15.5547 21.4363 14.3571C21.9615 13.1334 22.2241 11.8317 22.2241 10.5039H19.0469C19.0469 11.4151 18.8631 12.3263 18.4955 13.1595C18.1279 13.9926 17.629 14.7476 16.9725 15.3985C15.6071 16.7002 13.8216 17.4292 11.9573 17.4552" fill="#412174"/>
</g>
<defs>
<filter id="filter0_d_807_923" x="0.515194" y="0.0410156" width="119.357" height="38.6453" filterUnits="userSpaceOnUse" color-interpolation-filters="sRGB">
<feFlood flood-opacity="0" result="BackgroundImageFix"/>
<feColorMatrix in="SourceAlpha" type="matrix" values="0 0 0 0 0 0 0 0 0 0 0 0 0 0 0 0 0 0 127 0" result="hardAlpha"/>
<feOffset dy="0.331425"/>
<feGaussianBlur stdDeviation="0.165712"/>
<feComposite in2="hardAlpha" operator="out"/>
<feColorMatrix type="matrix" values="0 0 0 0 0 0 0 0 0 0 0 0 0 0 0 0 0 0 0.25 0"/>
<feBlend mode="normal" in2="BackgroundImageFix" result="effect1_dropShadow_807_923"/>
<feBlend mode="normal" in="SourceGraphic" in2="effect1_dropShadow_807_923" result="shape"/>
</filter>
</defs>
</svg>
